<?xml version="1.0" encoding="UTF-8"?>
<svg id="b" data-name="Layer 2" xmlns="http://www.w3.org/2000/svg" width="582.99" height="901.04" viewBox="0 0 582.99 901.04">
  <defs>
    <style>
      .d {
        fill: none;
        stroke: #899090;
        stroke-miterlimit: 10;
      }

      .e {
        opacity: .5;
      }
    </style>
  </defs>
  <g id="c" data-name="Layer 1">
    <g class="e">
      <g>
        <path class="d" d="M85.44,433.58h-48.03c-20.39,0-36.91-16.53-36.91-36.91V61.08C.5,40.69,17.03,24.17,37.41,24.17h48.03"/>
        <line class="d" x1="423.9" y1="433.58" x2="159.1" y2="433.58"/>
        <path class="d" d="M497.55,24.17h48.03c20.39,0,36.91,16.53,36.91,36.91v335.58c0,20.39-16.53,36.91-36.91,36.91h-48.03"/>
        <line class="d" x1="159.1" y1="24.17" x2="423.9" y2="24.17"/>
        <path class="d" d="M544.48,424.83H38.51c-15.43,0-27.98-12.55-27.98-27.98V60.89c0-15.43,12.55-27.98,27.98-27.98h505.97c15.43,0,27.98,12.55,27.98,27.98v335.96c0,15.43-12.55,27.98-27.98,27.98ZM38.51,37.78c-12.74,0-23.11,10.37-23.11,23.11v335.96c0,12.74,10.37,23.11,23.11,23.11h505.97c12.74,0,23.11-10.37,23.11-23.11V60.89c0-12.74-10.37-23.11-23.11-23.11H38.51Z"/>
        <rect class="d" x="31.31" y="52.86" width="520.37" height="352.02" rx="3.41" ry="3.41"/>
        <rect class="d" x="68.37" y="89.04" width="446.26" height="239.54" rx="3.41" ry="3.41"/>
        <rect class="d" x="157.3" y="79.77" width="268.38" height="9.26"/>
        <circle class="d" cx="94.83" cy="362.54" r="26.47"/>
        <rect class="d" x="85.44" y=".5" width="18.36" height="28.66" rx=".83" ry=".83"/>
        <rect class="d" x="140.73" y=".5" width="18.36" height="28.66" rx=".83" ry=".83"/>
        <rect class="d" x="159.1" y="11.11" width="27.38" height="13.06"/>
        <path class="d" d="M186.47,11.11c2.19-2.8,4.55-5.85,9.98-6.56s40.29-3.05,95.04-3.05"/>
        <rect class="d" x="479.19" y=".5" width="18.36" height="28.66" rx=".83" ry=".83"/>
        <rect class="d" x="423.9" y=".5" width="18.36" height="28.66" rx=".83" ry=".83"/>
        <rect class="d" x="396.52" y="11.11" width="27.38" height="13.06"/>
        <path class="d" d="M396.52,11.11c-2.19-2.8-4.55-5.85-9.98-6.56-5.43-.7-40.29-3.05-95.04-3.05"/>
        <rect class="d" x="103.8" y="6.31" width="36.93" height="17.86"/>
        <rect class="d" x="442.26" y="6.31" width="36.93" height="17.86"/>
        <path class="d" d="M497.55,467.46h48.03c20.39,0,36.91,16.53,36.91,36.91v335.58c0,20.39-16.53,36.91-36.91,36.91h-48.03"/>
        <line class="d" x1="442.26" y1="467.46" x2="479.19" y2="467.46"/>
        <line class="d" x1="159.1" y1="467.46" x2="423.9" y2="467.46"/>
        <line class="d" x1="103.8" y1="467.46" x2="140.73" y2="467.46"/>
        <path class="d" d="M85.44,876.87h-48.03c-20.39,0-36.91-16.53-36.91-36.91v-335.58c0-20.39,16.53-36.91,36.91-36.91h48.03"/>
        <line class="d" x1="423.9" y1="876.87" x2="159.1" y2="876.87"/>
        <path class="d" d="M38.51,476.2h505.97c15.43,0,27.98,12.55,27.98,27.98v335.96c0,15.43-12.55,27.98-27.98,27.98H38.51c-15.43,0-27.98-12.55-27.98-27.98v-335.96c0-15.43,12.55-27.98,27.98-27.98ZM544.48,863.25c12.74,0,23.11-10.37,23.11-23.11v-335.96c0-12.74-10.37-23.11-23.11-23.11H38.51c-12.74,0-23.11,10.37-23.11,23.11v335.96c0,12.74,10.37,23.11,23.11,23.11h505.97Z"/>
        <rect class="d" x="52.34" y="539.93" width="478.32" height="300.35" rx="7.24" ry="7.24"/>
        <rect class="d" x="479.19" y="871.88" width="18.36" height="28.66" rx=".83" ry=".83"/>
        <rect class="d" x="423.9" y="871.88" width="18.36" height="28.66" rx=".83" ry=".83"/>
        <rect class="d" x="85.44" y="871.88" width="18.36" height="28.66" rx=".83" ry=".83"/>
        <rect class="d" x="140.73" y="871.88" width="18.36" height="28.66" rx=".83" ry=".83"/>
        <rect class="d" x="442.26" y="883.87" width="36.93" height="10.57"/>
        <rect class="d" x="103.8" y="883.87" width="36.93" height="10.57"/>
        <rect class="d" x="85.44" y="427.77" width="18.36" height="43.51" rx=".83" ry=".83"/>
        <rect class="d" x="140.73" y="427.77" width="18.36" height="43.51" rx=".83" ry=".83"/>
        <rect class="d" x="479.19" y="427.77" width="18.36" height="43.51" rx=".83" ry=".83"/>
        <rect class="d" x="423.9" y="427.77" width="18.36" height="43.51" rx=".83" ry=".83"/>
        <rect class="d" x="103.8" y="433.58" width="36.93" height="17.86"/>
        <rect class="d" x="442.26" y="433.58" width="36.93" height="17.86"/>
        <rect class="d" x="268.6" y="347.9" width="38.44" height="22.91" rx=".45" ry=".45"/>
        <rect class="d" x="170.78" y="340.84" width="38.44" height="37.03" rx=".45" ry=".45"/>
        <g>
          <g>
            <rect class="d" x="248.7" y="353.55" width="11.6" height="11.6" rx=".86" ry=".86"/>
            <polygon class="d" points="256.12 356.55 252.88 356.55 251.26 359.35 252.88 362.16 256.12 362.16 257.74 359.35 256.12 356.55"/>
          </g>
          <g>
            <rect class="d" x="315.33" y="353.55" width="11.6" height="11.6" rx=".86" ry=".86"/>
            <polygon class="d" points="322.75 356.55 319.51 356.55 317.89 359.35 319.51 362.16 322.75 362.16 324.37 359.35 322.75 356.55"/>
          </g>
        </g>
        <g>
          <g>
            <rect class="d" x="150.89" y="353.55" width="11.6" height="11.6" rx=".86" ry=".86"/>
            <polygon class="d" points="158.31 356.55 155.07 356.55 153.45 359.35 155.07 362.16 158.31 362.16 159.93 359.35 158.31 356.55"/>
          </g>
          <g>
            <rect class="d" x="217.52" y="353.55" width="11.6" height="11.6" rx=".86" ry=".86"/>
            <polygon class="d" points="224.94 356.55 221.7 356.55 220.08 359.35 221.7 362.16 224.94 362.16 226.56 359.35 224.94 356.55"/>
          </g>
        </g>
        <circle class="d" cx="465.95" cy="359.35" r="9.47"/>
        <circle class="d" cx="465.95" cy="359.35" r="4.22"/>
        <path class="d" d="M299.23,367.83h-22.82c-.16,0-.31-.02-.46-.06l-4.09-1.1c-.78-.21-1.31-.91-1.31-1.72v-11.19c0-.8.54-1.51,1.31-1.72l4.09-1.1c.15-.04.31-.06.46-.06h22.82c.16,0,.31.02.46.06l4.09,1.1c.78.21,1.31.91,1.31,1.72v11.19c0,.8-.54,1.51-1.31,1.72l-4.09,1.1c-.15.04-.31.06-.46.06Z"/>
        <rect class="d" x="274.59" y="354.44" width="26.45" height="5.46"/>
        <rect class="d" x="356.06" y="347.9" width="38.44" height="22.91" rx=".45" ry=".45"/>
        <g>
          <g>
            <rect class="d" x="336.16" y="353.55" width="11.6" height="11.6" rx=".86" ry=".86"/>
            <polygon class="d" points="343.58 356.55 340.34 356.55 338.72 359.35 340.34 362.16 343.58 362.16 345.2 359.35 343.58 356.55"/>
          </g>
          <g>
            <rect class="d" x="402.79" y="353.55" width="11.6" height="11.6" rx=".86" ry=".86"/>
            <polygon class="d" points="410.21 356.55 406.97 356.55 405.35 359.35 406.97 362.16 410.21 362.16 411.83 359.35 410.21 356.55"/>
          </g>
        </g>
        <path class="d" d="M386.69,367.83h-22.82c-.16,0-.31-.02-.46-.06l-4.09-1.1c-.78-.21-1.31-.91-1.31-1.72v-11.19c0-.8.54-1.51,1.31-1.72l4.09-1.1c.15-.04.31-.06.46-.06h22.82c.16,0,.31.02.46.06l4.09,1.1c.78.21,1.31.91,1.31,1.72v11.19c0,.8-.54,1.51-1.31,1.72l-4.09,1.1c-.15.04-.31.06-.46.06Z"/>
        <rect class="d" x="362.05" y="354.44" width="26.45" height="5.46"/>
        <rect class="d" x="173.3" y="343.26" width="33.42" height="27.55" rx=".45" ry=".45"/>
        <polygon class="d" points="204.21 346.07 175.8 346.07 175.8 362.16 181.62 362.16 181.62 365.89 185.44 365.89 185.44 370.81 194.57 370.81 194.57 365.89 198.39 365.89 198.39 362.16 204.21 362.16 204.21 346.07"/>
        <rect class="d" x="107.84" y="114.48" width="367.32" height="188.64" rx="1.02" ry="1.02"/>
        <line class="d" x1="103.8" y1="876.87" x2="140.73" y2="876.87"/>
        <line class="d" x1="442.26" y1="876.87" x2="479.19" y2="876.87"/>
        <rect class="d" x="52.34" y="496.15" width="478.32" height="38.84" rx="1.59" ry="1.59"/>
        <line class="d" x1="61.32" y1="554.36" x2="522.35" y2="554.36"/>
        <line class="d" x1="531.33" y1="740.9" x2="52.34" y2="740.9"/>
        <g>
          <rect class="d" x="69.45" y="544.74" width="38.83" height="4.56" rx=".34" ry=".34"/>
          <rect class="d" x="474.71" y="544.74" width="38.83" height="4.56" rx=".34" ry=".34"/>
        </g>
        <rect class="d" x="223.27" y="747.37" width="137.12" height="79.51" rx="1.42" ry="1.42"/>
        <g>
          <circle class="d" cx="75.35" cy="817.84" r="7.34"/>
          <circle class="d" cx="507.65" cy="817.84" r="7.34"/>
        </g>
        <rect class="d" x="489.76" y="783.24" width="30.47" height="15.98" rx="1.19" ry="1.19"/>
        <rect class="d" x="498.9" y="785.84" width="18.36" height="10.78" rx=".8" ry=".8"/>
        <rect class="d" x="506.09" y="785.84" width="3.97" height="10.78"/>
        <rect class="d" x="499.92" y="767.19" width="10.15" height="5.21" rx=".39" ry=".39"/>
        <rect class="d" x="499.92" y="748.4" width="10.15" height="5.21" rx=".39" ry=".39"/>
        <rect class="d" x="66.93" y="557.89" width="27.69" height="21.58" rx=".75" ry=".75"/>
        <rect class="d" x="66.93" y="585.02" width="29.39" height="29.39" rx=".75" ry=".75"/>
        <rect class="d" x="104.09" y="585.02" width="29.39" height="29.39" rx=".75" ry=".75"/>
        <rect class="d" x="141.24" y="585.02" width="29.39" height="29.39" rx=".75" ry=".75"/>
        <rect class="d" x="178.4" y="585.02" width="29.39" height="29.39" rx=".75" ry=".75"/>
        <rect class="d" x="215.55" y="585.02" width="29.39" height="29.39" rx=".75" ry=".75"/>
        <rect class="d" x="252.71" y="585.02" width="29.39" height="29.39" rx=".75" ry=".75"/>
        <rect class="d" x="289.86" y="585.02" width="29.39" height="29.39" rx=".75" ry=".75"/>
        <rect class="d" x="327.02" y="585.02" width="29.39" height="29.39" rx=".75" ry=".75"/>
        <rect class="d" x="364.17" y="585.02" width="29.39" height="29.39" rx=".75" ry=".75"/>
        <rect class="d" x="401.33" y="585.02" width="29.39" height="29.39" rx=".75" ry=".75"/>
        <rect class="d" x="438.48" y="585.02" width="29.39" height="29.39" rx=".75" ry=".75"/>
        <rect class="d" x="107.97" y="619.94" width="29.39" height="29.39" rx=".75" ry=".75"/>
        <rect class="d" x="145.13" y="619.94" width="29.39" height="29.39" rx=".75" ry=".75"/>
        <rect class="d" x="182.28" y="619.94" width="29.39" height="29.39" rx=".75" ry=".75"/>
        <rect class="d" x="219.44" y="619.94" width="29.39" height="29.39" rx=".75" ry=".75"/>
        <rect class="d" x="256.59" y="619.94" width="29.39" height="29.39" rx=".75" ry=".75"/>
        <rect class="d" x="293.75" y="619.94" width="29.39" height="29.39" rx=".75" ry=".75"/>
        <rect class="d" x="330.9" y="619.94" width="29.39" height="29.39" rx=".75" ry=".75"/>
        <rect class="d" x="368.05" y="619.94" width="29.39" height="29.39" rx=".75" ry=".75"/>
        <rect class="d" x="405.21" y="619.94" width="29.39" height="29.39" rx=".75" ry=".75"/>
        <rect class="d" x="126.55" y="654.87" width="29.39" height="29.39" rx=".75" ry=".75"/>
        <rect class="d" x="163.7" y="654.87" width="29.39" height="29.39" rx=".75" ry=".75"/>
        <rect class="d" x="177.23" y="690.11" width="29.74" height="41.98" rx=".75" ry=".75"/>
        <rect class="d" x="140.46" y="690.11" width="29.74" height="41.98" rx=".75" ry=".75"/>
        <rect class="d" x="367.69" y="690.11" width="29.74" height="41.98" rx=".75" ry=".75"/>
        <rect class="d" x="330.92" y="690.11" width="29.74" height="41.98" rx=".75" ry=".75"/>
        <rect class="d" x="103.7" y="690.11" width="29.74" height="41.98" rx=".75" ry=".75"/>
        <rect class="d" x="66.93" y="690.11" width="29.74" height="41.98" rx=".75" ry=".75"/>
        <rect class="d" x="200.86" y="654.87" width="29.39" height="29.39" rx=".75" ry=".75"/>
        <rect class="d" x="238.01" y="654.87" width="29.39" height="29.39" rx=".75" ry=".75"/>
        <rect class="d" x="212.93" y="690.11" width="110.21" height="41.98" rx=".75" ry=".75"/>
        <rect class="d" x="275.17" y="654.87" width="29.39" height="29.39" rx=".75" ry=".75"/>
        <rect class="d" x="312.32" y="654.87" width="29.39" height="29.39" rx=".75" ry=".75"/>
        <rect class="d" x="349.48" y="654.87" width="29.39" height="29.39" rx=".75" ry=".75"/>
        <rect class="d" x="386.63" y="654.87" width="29.39" height="29.39" rx=".75" ry=".75"/>
        <g>
          <rect class="d" x="444.82" y="690.12" width="31.26" height="18.05" rx=".75" ry=".75"/>
          <rect class="d" x="444.82" y="714.04" width="31.26" height="18.05" rx=".75" ry=".75"/>
        </g>
        <g>
          <rect class="d" x="406.18" y="714.04" width="31.26" height="18.05" rx=".75" ry=".75"/>
          <rect class="d" x="483.45" y="714.04" width="31.26" height="18.05" rx=".75" ry=".75"/>
        </g>
        <rect class="d" x="423.79" y="654.87" width="29.39" height="29.39" rx=".75" ry=".75"/>
        <rect class="d" x="442.36" y="619.94" width="29.39" height="29.39" rx=".75" ry=".75"/>
        <rect class="d" x="475.06" y="585.02" width="39.65" height="29.39" rx=".75" ry=".75"/>
        <rect class="d" x="480.96" y="619.94" width="33.75" height="29.39" rx=".75" ry=".75"/>
        <rect class="d" x="66.93" y="619.94" width="33.75" height="29.39" rx=".75" ry=".75"/>
        <rect class="d" x="66.93" y="654.87" width="53.21" height="29.39" rx=".75" ry=".75"/>
        <rect class="d" x="460.48" y="654.87" width="54.24" height="29.39" rx=".75" ry=".75"/>
        <rect class="d" x="101.94" y="557.89" width="27.69" height="21.58" rx=".75" ry=".75"/>
        <rect class="d" x="136.95" y="557.89" width="27.69" height="21.58" rx=".75" ry=".75"/>
        <rect class="d" x="171.96" y="557.89" width="27.69" height="21.58" rx=".75" ry=".75"/>
        <rect class="d" x="206.96" y="557.89" width="27.69" height="21.58" rx=".75" ry=".75"/>
        <rect class="d" x="241.97" y="557.89" width="27.69" height="21.58" rx=".75" ry=".75"/>
        <rect class="d" x="276.98" y="557.89" width="27.69" height="21.58" rx=".75" ry=".75"/>
        <rect class="d" x="311.99" y="557.89" width="27.69" height="21.58" rx=".75" ry=".75"/>
        <rect class="d" x="346.99" y="557.89" width="27.69" height="21.58" rx=".75" ry=".75"/>
        <rect class="d" x="382" y="557.89" width="27.69" height="21.58" rx=".75" ry=".75"/>
        <rect class="d" x="417.01" y="557.89" width="27.69" height="21.58" rx=".75" ry=".75"/>
        <rect class="d" x="452.02" y="557.89" width="27.69" height="21.58" rx=".75" ry=".75"/>
        <rect class="d" x="487.02" y="557.89" width="27.69" height="21.58" rx=".75" ry=".75"/>
        <polyline class="d" points="107.84 286.83 230.92 187.17 357.78 289.89 416.52 242.32 474.71 289.44"/>
        <path class="d" d="M418.98,114.48c4.91,8.65,7.72,18.65,7.72,29.3,0,32.79-26.58,59.38-59.38,59.38s-59.38-26.58-59.38-59.38c0-10.66,2.81-20.65,7.72-29.3"/>
      </g>
    </g>
  </g>
</svg>