<?xml version="1.0" encoding="UTF-8"?>
<svg id="b" data-name="Layer 2" xmlns="http://www.w3.org/2000/svg" width="22.49" height="22.49" viewBox="0 0 22.49 22.49">
  <defs>
    <style>
      .d {
        fill: none;
      }
    </style>
  </defs>
  <g id="c" data-name="Layer 1">
    <g>
      <path d="M17.07,19.01H5.42v-5.44c0-1.65.97-3.13,2.41-3.83-.42-.65-.65-1.41-.65-2.19,0-2.24,1.82-4.06,4.06-4.06s4.06,1.82,4.06,4.06c0,.78-.23,1.54-.65,2.19,1.44.69,2.41,2.18,2.41,3.83v5.44ZM6.71,17.72h9.07v-4.16c0-1.39-.99-2.61-2.34-2.89l-1.22-.26.91-.85c.57-.53.89-1.25.89-2.03,0-1.53-1.24-2.77-2.77-2.77s-2.77,1.24-2.77,2.77c0,.78.32,1.5.89,2.03l.91.85-1.22.26c-1.36.29-2.34,1.5-2.34,2.89v4.16Z"/>
      <rect class="d" width="22.49" height="22.49"/>
    </g>
  </g>
</svg>