<?xml version="1.0" encoding="UTF-8"?>
<svg id="b" data-name="Layer 2" xmlns="http://www.w3.org/2000/svg" width="22.49" height="22.49" viewBox="0 0 22.49 22.49">
  <defs>
    <style>
      .d {
        fill: none;
      }
    </style>
  </defs>
  <g id="c" data-name="Layer 1">
    <g>
      <path d="M18.99,11.8l1.93-6.9H5.33l-.53-1.76H1.57v1.19h2.35l2.48,8.19-.96.15v3.18h1.2c-.27.36-.43.82-.43,1.3,0,1.21.98,2.19,2.19,2.19s2.19-.98,2.19-2.19c0-.49-.16-.94-.43-1.3h3.91c-.27.36-.43.82-.43,1.3,0,1.21.98,2.19,2.19,2.19s2.19-.98,2.19-2.19c0-.49-.16-.94-.43-1.3h.96v-1.19H6.63v-.97l12.36-1.89ZM8.41,18.16c-.55,0-1.01-.45-1.01-1.01s.45-1.01,1.01-1.01,1.01.45,1.01,1.01-.45,1.01-1.01,1.01ZM15.84,18.16c-.55,0-1.01-.45-1.01-1.01s.45-1.01,1.01-1.01,1.01.45,1.01,1.01-.45,1.01-1.01,1.01ZM19.36,6.09l-1.3,4.65-10.47,1.6-1.89-6.25h13.67Z"/>
      <rect class="d" width="22.49" height="22.49"/>
    </g>
  </g>
</svg>