<?xml version="1.0" encoding="UTF-8"?>
<svg id="b" data-name="Layer 2" xmlns="http://www.w3.org/2000/svg" width="282.62" height="116.65" viewBox="0 0 282.62 116.65">
  <defs>
    <style>
      .d {
        fill: none;
        stroke: #161616;
        stroke-miterlimit: 10;
        stroke-width: .48px;
      }
    </style>
  </defs>
  <g id="c" data-name="Layer 1">
    <g>
      <g>
        <path class="d" d="M141.23,35.31h134.13c.53,0,.95-.43.95-.95v-10.82c0-3.73,1.85-5.87,3.03-6.75h0c1.18-.87,3.03-2.41,3.03-6.75V3.79c0-1.96-1.59-3.55-3.55-3.55h-137.52"/>
        <path class="d" d="M141.06,116.41h99.87c10.16,0,18.4-8.24,18.4-18.4v-37.36c0-1.76,1.43-3.19,3.19-3.19h9c2.64,0,4.79-2.14,4.79-4.79v-14.73c0-.53-.43-.95-.95-.95h-134.13"/>
      </g>
      <path class="d" d="M259.33,35.31v-16.53c0-10.23-8.3-18.53-18.53-18.53h0"/>
      <line class="d" x1="259.33" y1="55.96" x2="259.33" y2="36.99"/>
      <line class="d" x1="260.26" y1="17.14" x2="276.03" y2="17.14"/>
      <path class="d" d="M250.7,36.99v60.97c0,5.44-4.41,9.85-9.85,9.85h-99.62"/>
      <path class="d" d="M141.23,9.77h99.62c5.44,0,9.85,4.41,9.85,9.85v15.69"/>
      <g>
        <path class="d" d="M29.15,35.31H7.26c-.53,0-.95-.43-.95-.95v-10.82c0-3.73-1.85-5.87-3.03-6.75h0c-1.18-.87-3.03-2.41-3.03-6.75V3.79c0-1.96,1.59-3.55,3.55-3.55h137.52"/>
        <path class="d" d="M141.57,116.41H41.7c-10.16,0-18.4-8.24-18.4-18.4v-37.36c0-1.76-1.43-3.19-3.19-3.19h-9c-2.64,0-4.79-2.14-4.79-4.79v-14.73c0-.53.43-.95.95-.95h21.89"/>
      </g>
      <path class="d" d="M23.29,35.31v-16.53c0-10.23,8.3-18.53,18.53-18.53h0"/>
      <line class="d" x1="23.29" y1="55.96" x2="23.29" y2="36.99"/>
      <line class="d" x1="22.37" y1="17.14" x2="6.6" y2="17.14"/>
      <path class="d" d="M141.39,107.81H41.77c-5.44,0-9.85-4.41-9.85-9.85v-60.97h109.47"/>
      <path class="d" d="M141.39,9.77H41.77c-5.44,0-9.85,4.41-9.85,9.85v15.69s109.47,0,109.47,0"/>
      <path class="d" d="M47.93,101.23c-1.05,0-2.08-.28-3-.8-1.39-.8-2.38-2.09-2.79-3.64s-.2-3.16.6-4.55l25.53-44.22c1.07-1.85,3.06-3,5.2-3,1.05,0,2.08.28,3,.8,2.86,1.65,3.85,5.33,2.19,8.19l-25.53,44.22c-1.07,1.85-3.06,3-5.2,3Z"/>
      <rect class="d" x="57.42" y="44.32" width="6.56" height="57.61" rx="1.84" ry="1.84" transform="translate(44.69 -20.55) rotate(30)"/>
      <path class="d" d="M74.64,101.23c-1.05,0-2.08-.28-3-.8-1.39-.8-2.38-2.09-2.79-3.64s-.2-3.16.6-4.55l25.53-44.22c1.07-1.85,3.06-3,5.2-3,1.05,0,2.08.28,3,.8,2.86,1.65,3.85,5.33,2.19,8.19l-25.53,44.22c-1.07,1.85-3.06,3-5.2,3Z"/>
      <rect class="d" x="84.13" y="44.32" width="6.56" height="57.61" rx="1.84" ry="1.84" transform="translate(48.27 -33.91) rotate(30)"/>
      <path class="d" d="M101.36,101.23c-1.05,0-2.08-.28-3-.8-1.39-.8-2.38-2.09-2.79-3.64-.41-1.55-.2-3.16.6-4.55l25.53-44.22c1.07-1.85,3.06-3,5.2-3,1.05,0,2.08.28,3,.8,2.86,1.65,3.85,5.33,2.19,8.19l-25.53,44.22c-1.07,1.85-3.06,3-5.2,3Z"/>
      <rect class="d" x="110.85" y="44.32" width="6.56" height="57.61" rx="1.84" ry="1.84" transform="translate(51.85 -47.27) rotate(30)"/>
      <path class="d" d="M128.07,101.23c-1.05,0-2.08-.28-3-.8-1.39-.8-2.38-2.09-2.79-3.64-.41-1.55-.2-3.16.6-4.55l25.53-44.22c1.07-1.85,3.06-3,5.2-3,1.05,0,2.08.28,3,.8,2.86,1.65,3.85,5.33,2.19,8.19l-25.53,44.22c-1.07,1.85-3.06,3-5.2,3Z"/>
      <rect class="d" x="137.56" y="44.32" width="6.56" height="57.61" rx="1.84" ry="1.84" transform="translate(55.43 -60.62) rotate(30)"/>
      <path class="d" d="M154.78,101.23c-1.05,0-2.08-.28-3-.8-1.39-.8-2.38-2.09-2.79-3.64s-.2-3.16.6-4.55l25.53-44.22c1.07-1.85,3.06-3,5.2-3,1.05,0,2.08.28,3,.8,2.86,1.65,3.85,5.33,2.19,8.19l-25.53,44.22c-1.07,1.85-3.06,3-5.2,3Z"/>
      <rect class="d" x="164.27" y="44.32" width="6.56" height="57.61" rx="1.84" ry="1.84" transform="translate(59.01 -73.98) rotate(30)"/>
      <path class="d" d="M181.49,101.23c-1.05,0-2.08-.28-3-.8-1.39-.8-2.38-2.09-2.79-3.64-.41-1.55-.2-3.16.6-4.55l25.53-44.22c1.07-1.85,3.06-3,5.2-3,1.05,0,2.08.28,3,.8,2.86,1.65,3.85,5.33,2.19,8.19l-25.53,44.22c-1.07,1.85-3.06,3-5.2,3Z"/>
      <rect class="d" x="190.98" y="44.32" width="6.56" height="57.61" rx="1.84" ry="1.84" transform="translate(62.59 -87.33) rotate(30)"/>
      <path class="d" d="M208.2,101.23c-1.05,0-2.08-.28-3-.8-1.39-.8-2.38-2.09-2.79-3.64-.41-1.55-.2-3.16.6-4.55l25.53-44.22c1.07-1.85,3.06-3,5.2-3,1.05,0,2.08.28,3,.8,2.86,1.65,3.85,5.33,2.19,8.19l-25.53,44.22c-1.07,1.85-3.06,3-5.2,3Z"/>
      <rect class="d" x="217.69" y="44.32" width="6.56" height="57.61" rx="1.84" ry="1.84" transform="translate(66.17 -100.69) rotate(30)"/>
      <circle class="d" cx="233.6" cy="85.21" r="3.64"/>
      <path class="d" d="M48.44,116.41h1.21c.7,0,1.27-.57,1.27-1.27v-1.95c0-.7.57-1.27,1.27-1.27h41.44c.7,0,1.27.57,1.27,1.27v1.95c0,.7.57,1.27,1.27,1.27h2.18"/>
      <path class="d" d="M152.01,116.41h1.42c.84,0,1.65-.33,2.25-.93l.19-.19c.6-.6,1.4-.93,2.25-.93h27.32c.84,0,1.65.33,2.25.93l.15.15c.6.6,1.4.93,2.25.93h5.95c.84,0,1.65-.33,2.25-.93h0c.6-.6,1.4-.93,2.25-.93h27.16c.84,0,1.65.33,2.25.93h0c.6.6,1.4.94,2.25.94h1.42"/>
      <path class="d" d="M31.92,30.31h-1.8c-.54,0-.97.43-.97.97v41.98c0,.54.43.97.97.97h1.8"/>
    </g>
  </g>
</svg>