<?xml version="1.0" encoding="UTF-8"?>
<svg id="b" data-name="Layer 2" xmlns="http://www.w3.org/2000/svg" width="54.45" height="50.37" viewBox="0 0 54.45 50.37">
  <g id="c" data-name="Layer 1">
    <g>
      <path d="M12.26,5.7c.18,0,.35-.03.51-.07.93-.23,1.63-1.06,1.63-2.07,0-.09-.02-.18-.03-.27-.13-1.02-.98-1.82-2.03-1.86-.03,0-.05,0-.08,0-1.18,0-2.14.96-2.14,2.14,0,.29.06.57.17.82.32.77,1.08,1.31,1.97,1.31Z"/>
      <path d="M18.51,46.1c-.86.03-1.58.57-1.89,1.32-.11.27-.18.57-.16.89.02.6.29,1.14.71,1.51.4.36.93.57,1.5.55.84-.03,1.54-.54,1.86-1.26.13-.29.21-.61.2-.95-.02-.62-.31-1.16-.74-1.53-.39-.34-.91-.55-1.47-.53Z"/>
      <path d="M43.67,14.44c.31-1.98.45-4,.37-6.04-.34-7.54-5.95-10.56-12.42-6.72-1.69,1.04-3.24,2.23-4.68,3.55-1.61-1.42-3.34-2.69-5.25-3.77C18.94-.03,16.41-.33,14.37.34c.82.54,1.42,1.37,1.65,2.36,1.16-.14,2.64.17,4.5,1.1,1.68.88,3.25,1.94,4.72,3.13-1.58,1.66-3.02,3.47-4.34,5.36-2.76.3-5.5.82-8.19,1.55-.41-2.11-.59-4.43-.32-6.42-.04,0-.07.01-.1.01-.98,0-1.86-.38-2.54-.98-.12.69-.2,1.41-.2,2.19,0,2.03.2,4.03.58,5.99-13.74,4.87-13.34,15.3.5,20.33-.71,3.7-.77,7.38.34,10.71.81,2.18,2.3,3.41,4.05,3.9-.14-.38-.24-.77-.25-1.19-.02-.48.06-.95.21-1.38-1.38-.72-2.36-2.42-2.61-5.56-.1-1.95.03-3.89.33-5.81,2.77.81,5.61,1.39,8.48,1.74,1.42,1.84,2.96,3.59,4.63,5.18-1.24,1.19-2.71,2.36-4.21,3.26.52.63.85,1.42.88,2.29,0,.02,0,.03,0,.05,1.89-1.13,3.62-2.46,5.21-3.93,1.57,1.31,3.26,2.48,5.09,3.46,4.08,2.26,9.51,2.06,11.2-3.01.91-3.09.82-6.45.15-9.82.63-.25,1.27-.52,1.91-.81-.68-.51-1.16-1.2-1.39-1.98-.37.14-.73.28-1.09.4-.73-2.65-1.77-5.26-2.91-7.73,1.21-2.87,2.2-5.84,2.8-8.88,3.99,1.58,8.91,4.17,9.11,8.6-.12,1.42-.73,2.63-1.62,3.66.56.51.95,1.17,1.13,1.89,1.39-1.5,2.33-3.32,2.42-5.54-.36-5.58-6.05-8.38-10.79-10.01ZM26.99,8.45c1.2,1.12,2.34,2.33,3.41,3.6-2.22-.13-4.45-.14-6.67,0,1.02-1.26,2.11-2.47,3.27-3.59ZM19.95,13.64c-1.23,1.86-2.36,3.78-3.44,5.7-.43.83-.87,1.7-1.3,2.6-.82-1.99-1.52-4.01-2.05-6.07-.06-.22-.12-.45-.18-.68,2.27-.68,4.6-1.19,6.97-1.54ZM11.13,32.59c-12.11-4.16-12.16-11.92-.72-16.51.75,3.15,1.92,6.21,3.3,9.15-1.01,2.35-1.92,4.84-2.58,7.36ZM13.13,33.19c.44-1.91,1.04-3.79,1.74-5.64.58,1.11,1.18,2.21,1.79,3.28.75,1.21,1.52,2.41,2.34,3.59-1.99-.3-3.95-.71-5.87-1.24ZM22.52,34.83c-1.27-1.72-2.45-3.52-3.54-5.37-.99-1.69-1.91-3.42-2.73-5.19.62-1.37,1.28-2.71,1.97-4.02,1.35-2.38,2.84-4.74,4.51-6.96,2.87-.26,5.77-.29,8.65-.06,1.59,2.01,3.05,4.14,4.37,6.29.81,1.4,1.58,2.85,2.31,4.32-.81,1.94-1.72,3.85-2.72,5.7-.96,1.78-2.01,3.52-3.14,5.2-3.22.3-6.46.32-9.68.06ZM27.56,40.68c-.98-.96-1.91-1.97-2.81-3.02,1.79.09,3.58.09,5.37,0-.81,1.05-1.67,2.06-2.56,3.03ZM42.4,40.49c-.41,9.57-8.09,6.14-12.97,1.97,1.51-1.59,2.88-3.31,4.16-5.1,2.85-.35,5.67-.94,8.42-1.78.27,1.62.41,3.26.39,4.91ZM41.51,33.1c-1.93.52-3.9.94-5.9,1.25.73-1.15,1.43-2.32,2.09-3.5.64-1.21,1.25-2.45,1.84-3.7.8,1.94,1.47,3.93,1.97,5.95ZM40.65,15.76c-.42,1.92-.99,3.82-1.66,5.69-.53-1.01-1.06-1.98-1.58-2.89-1.02-1.69-2.09-3.37-3.23-5,2.25.31,4.48.78,6.65,1.41-.06.27-.11.54-.18.8ZM41.05,13.69c-2.56-.64-5.16-1.11-7.79-1.4-1.4-1.9-2.91-3.72-4.56-5.39,1.3-1.09,2.68-2.09,4.17-2.93,8.15-4.44,9.14,3.55,8.18,9.72Z"/>
      <path d="M49.65,29.3c-.08-.07-.16-.13-.25-.19-1.01-.6-2.32-.27-2.93.74-.28.47-.35,1.01-.25,1.52.12.57.45,1.09.99,1.41.24.14.49.23.74.27.84.14,1.72-.23,2.18-1.01.1-.17.17-.36.22-.54.21-.8-.05-1.66-.71-2.2Z"/>
      <path d="M34.32,24.27c0-3.92-3.19-7.12-7.12-7.12s-7.12,3.19-7.12,7.12,3.19,7.12,7.12,7.12,7.12-3.19,7.12-7.12ZM22.34,24.27c0-.42.06-.82.16-1.21.18.22.4.37.63.57,0,0,0,0,0,0,.02.01.04.03.06.04.36.35.51.33.79-.07.23-.32.9-.43.9.02,0,.34-.42.56-.64.84-.31.39-.23.83-.04,1.2.42.82.9,1.6,1.36,2.4.02.03.08.46.11.82-1.93-.65-3.32-2.46-3.32-4.6ZM30.37,27.36c0,.18.08.32.17.43-.87.83-2.04,1.34-3.33,1.34,0,0,0,0-.01,0,.02-.18-.03-.47-.04-.47-.03-.42-.12-.86-.04-1.26.09-.45.29-.91.55-1.28.44-.61.43-1.35.32-2.12-.08-.56-.33-.74-.9-.66-.41.06-.83.05-1.24,0-.17-.02-.44-.16-.48-.36-.08-.4.35-.86.73-.61.17.11.17.39.34.43.13.03.41.08.31-.5-.05-.53.06-1.02.32-1.5.14-.26.17-.7.16-.94,0-.1-.03-.27-.02-.41,1.01,0,1.95.31,2.73.84-.13.1-.23.2-.26.3-.4.9-.72,1.8-.66,2.78.03.44.25.58.67.41.22-.09.45-.14.68-.18.22-.03.33.08.33.31.03.8-.1,1.56-.31,2.33-.09.33-.03.7-.02,1.14Z"/>
    </g>
  </g>
</svg>